/* XPM */
static char *_1f13c7beb344d8a9231d01a4c742dc7Rc1OfVGq50pg5m13[] = {
/* columns rows colors chars-per-pixel */
"32 32 218 2 ",
"   c #010102",
".  c #00040B",
"X  c #00090D",
"o  c #080703",
"O  c #000612",
"+  c #000913",
"@  c #1E2C15",
"#  c #123532",
"$  c #363A39",
"%  c #2D403E",
"&  c #38402B",
"*  c #084D6D",
"=  c #074A64",
"-  c #19526D",
";  c #135778",
":  c #095171",
">  c #224F66",
",  c #265E79",
"<  c #295F79",
"1  c #275D77",
"2  c #355A63",
"3  c #37626E",
"4  c #2A627C",
"5  c #2D6576",
"6  c #3D6C7E",
"7  c #356571",
"8  c #575F52",
"9  c #42535A",
"0  c #42736D",
"q  c #4F6977",
"w  c #707679",
"e  c #638C7E",
"r  c #678C7A",
"t  c #7E8178",
"y  c #879C7D",
"u  c #165785",
"i  c #166184",
"p  c #1C6285",
"a  c #17648A",
"s  c #136893",
"d  c #1B6D93",
"f  c #1A6E98",
"g  c #186B97",
"h  c #1C729C",
"j  c #1B7295",
"k  c #236A8B",
"l  c #2A6A8C",
"z  c #276684",
"x  c #316985",
"c  c #3A6B83",
"v  c #376D8C",
"b  c #33728C",
"n  c #3B768B",
"m  c #216E92",
"M  c #2B6E91",
"N  c #276F9A",
"B  c #396E93",
"V  c #2C7392",
"C  c #2E7994",
"Z  c #22729A",
"A  c #2B759C",
"S  c #27769B",
"D  c #337394",
"F  c #337A9C",
"G  c #387B9B",
"H  c #367796",
"J  c #1D78A5",
"K  c #2375A2",
"L  c #2279A5",
"P  c #257CAA",
"I  c #297CAB",
"U  c #2A79A4",
"Y  c #337CA5",
"T  c #3B7BA2",
"R  c #417D8A",
"E  c #4A7E9C",
"W  c #457897",
"Q  c #6A7B85",
"!  c #447AA5",
"~  c #3B809D",
"^  c #1E81AA",
"/  c #2782AE",
"(  c #3581A4",
")  c #3D83A5",
"_  c #3383AC",
"`  c #3A84AB",
"'  c #3A8AAA",
"]  c #2484B2",
"[  c #2C85B3",
"{  c #2C8AB6",
"}  c #2C8CBB",
"|  c #2388B7",
" . c #368CB2",
".. c #3C8CB4",
"X. c #3787B4",
"o. c #2E92BE",
"O. c #3193BC",
"+. c #3B95BC",
"@. c #48808D",
"#. c #4B849B",
"$. c #588999",
"%. c #578D8D",
"&. c #708C94",
"*. c #438BAB",
"=. c #4788A9",
"-. c #4E95AE",
";. c #5692AB",
":. c #438EB3",
">. c #4C8EB3",
",. c #548DB6",
"<. c #4B93B3",
"1. c #4D94BC",
"2. c #489AB9",
"3. c #5294B3",
"4. c #5495BB",
"5. c #559BBB",
"6. c #599BBC",
"7. c #5898B7",
"8. c #7C8DA1",
"9. c #6A90A1",
"0. c #6592A9",
"q. c #739DAA",
"w. c #629AB3",
"e. c #61A4BF",
"r. c #3294C3",
"t. c #3A95C2",
"y. c #369DC8",
"u. c #3C9CC9",
"i. c #379AC5",
"p. c #3DA2CD",
"a. c #3DA0C0",
"s. c #3EA3D3",
"d. c #439CC3",
"f. c #4A9CC1",
"g. c #4598C7",
"h. c #549CC3",
"j. c #5A9CC3",
"k. c #609EC7",
"l. c #43A5CD",
"z. c #4BA5CB",
"x. c #48A6C8",
"c. c #5AA4C4",
"v. c #5BA4CA",
"b. c #5CABCD",
"n. c #54A5C8",
"m. c #44A7D1",
"M. c #43ABD4",
"N. c #4BACD4",
"B. c #4EABD6",
"V. c #5CAAD1",
"C. c #54AAD1",
"Z. c #4BB2D9",
"A. c #49B1D5",
"S. c #5DB2D3",
"D. c #53B4DC",
"F. c #5CB6DD",
"G. c #57B9DC",
"H. c #58B7D9",
"J. c #59B4CF",
"K. c #64ABC5",
"L. c #64ABCD",
"P. c #63A5C8",
"I. c #72BBCE",
"U. c #63A9D2",
"Y. c #63B2D6",
"T. c #6BB4D5",
"R. c #6BB5DB",
"E. c #6DBBDC",
"W. c #63B9D9",
"Q. c #73BBD6",
"!. c #71B5DB",
"~. c #74BCDC",
"^. c #7BB9D7",
"/. c #4FAFE1",
"(. c #49B4E2",
"). c #5FBEE3",
"_. c #57BBE6",
"`. c #63BCE2",
"'. c #6CBFE4",
"]. c #74BCE3",
"[. c #7BBCE7",
"{. c #66C2DC",
"}. c #7BC4D8",
"|. c #6DC3E4",
" X c #6BC3E5",
".X c #73C3E4",
"XX c #7CC5E5",
"oX c #7AC3EA",
"OX c #7CCCE9",
"+X c #78C9E5",
"@X c #7FD2EB",
"#X c #78CBF3",
"$X c #859D8F",
"%X c #88AFAE",
"&X c #85A8BB",
"*X c #8EC0BD",
"=X c #86AFC3",
"-X c #82BAD1",
";X c #82BFEE",
":X c #86C6CE",
">X c #85C7DA",
",X c #99C9DF",
"<X c #83C4E1",
"1X c #83CAE3",
"2X c #8CCDE5",
"3X c #83CAEB",
"4X c #8BCAEC",
"5X c #89C6EB",
"6X c #97CDE9",
"7X c #8CD2E9",
"8X c #95D6E9",
"9X c #86CDF2",
"0X c #89CDF2",
"qX c #8AD4F5",
"wX c #95D9FC",
"eX c #97D9F6",
"rX c #9BE2FF",
"tX c #A8E4FB",
/* pixels */
".     X n ' ( ` T ! ! B H H C V F A F F N Y F V T G V c .       ",
". .   . #.Y..Xh.U.;X,.^.<X-.~.E.1.~.L.3.5X6.P.<X7.4.!.w..       ",
"      . E oX5.M Y 1.M =.>.l 5.<.M 3.H b 6.D H 3.l >.E.3.O       ",
"      . E ~.D F X.X.:.:.>.>.>.) =.~ C C V C C V T !.E.3..       ",
"  o   . W 4.M ) z.H. X|.qXwXqXqXXXS.J.x.a.l.x.d.b.rXf.b .     o ",
"      . E [.! V +.l.A.H.'.oX0X4XOX'.H.A.M.p.y.t.v.rXT.;..       ",
"      O v !.D M  .O.N.D.F. X9X4X4XoX`._.(.(.s.t.v.wXL.#..     . ",
"      . W h.l D  .O.i.m.D.F..X9X4X9X#X)._._./.g.L.wX4.B .       ",
"      . B [.T l Y / O.p.M.D.`..X3XOXOX|.{.{.`.V.L.wXU.7.. o     ",
"      . W j.k F Y I [ r.p.Z.G.`.@XOX+X@X+X{.W.b.Q.wXV.W .       ",
"      . x V.M V ` U I { i.M.Z.G..XXXXX1X1X}.}.Q.}.eX<.b X       ",
"      . x E.( F ..I P I } y.M.A.W..X3X>X<X2X>XI.>X7XL.;..       ",
"      . B h.k ( g.[ P L / o.p.M.Z.).OXXX^.2X}.}.>X2XK.R .       ",
"      . x c.m U t.[ I K L ] r.p.Z.H.~.8X6X,X:X:X8X2X-.5 .       ",
".     X 4 T.( ( u.} ] L K P { r.l.S.-X&X8.q %X*X:X8XK.#..       ",
".     . x :.i _ l.r.{ P K K I } t.c.=XQ w $ $Xe @.tXK.c .       ",
"      . 4 v.A _ Z.r.} [ J f U P O.2.q.&.t & y r #.~.^.6 +       ",
"      . , E.m _ B.y.r.{ P Z Z K ^ 2.9.w 8 @ y r #.!.tX9..       ",
"      . , ` a ..Z.s.i.} ] L f f J ( 9.9 % # r 0 n ^.>X3 X       ",
"      . 4 Y.A ..D.m.y.r.{ P h f h F 0.q 2 # %.R z ~.tX9..       ",
"      . 4 v.k ..G.l.p.i.{ ] L h h m D - - = 5.T.( T.eX$..       ",
"      . , ) i ..F.l.m.p.o.{ ] J s f F H ` f.B.F.V.~.^.7 .       ",
"  o   . 4 ~.V ' W.N.m.l.i.r.| J h Z i A _ [ u.N.].1XeXq..       ",
"      X < *.; <. XH.l.l.p.r.| ] K d d d I ] r.u.U.eX#.7 .       ",
"      . < <.p *.|.F.z.z.m.u.o.] P h j a h / { +.T.2X;.6 .     o ",
"      . 1 c.p <..XW.S.x.u.u.O.} ] L f s d K P _ 5.6Xe.n +       ",
"      . , ( ; <.OXW.Y.C.z.z.t.r.] ] J f d j h U 4.5X) - O . . . ",
"      . , T.l 6.qXE.b.b.z.2.d.t.} / L s a i d m 3.4X6.E O       ",
"      . z F ; 3.XXE.T.T.b.v.C.z.d. ...*.T G C V 7.4X3.c .       ",
"      . , 1.D j.T.~.XX3X3XXXY.n.d.S.].5X4X4X1X1X5X5X=.> .       ",
"      . z h.P.>.*.5.=.3.5.*.` Z j f.1.,.k.>.-.c.1.>.j.E X   o   ",
"      . = A G : z F * z V * M a : S u u >.; k ' u F 3.c .       "
};
